<?xml version="1.0" encoding="utf-8"?>
<!-- Generator: Adobe Illustrator 28.0.0, SVG Export Plug-In . SVG Version: 6.00 Build 0)  -->
<svg version="1.1" id="Слой_1" xmlns="http://www.w3.org/2000/svg" xmlns:xlink="http://www.w3.org/1999/xlink" x="0px" y="0px"
	 viewBox="0 0 22 22" style="enable-background:new 0 0 22 22;" xml:space="preserve">
<style type="text/css">
	.st0{fill:#4F2EE8;}
</style>
<path class="st0" d="M10.3,12.3c0.1,0.1,0.2,0.2,0.3,0.2c0.1,0,0.2,0.1,0.4,0.1s0.2,0,0.4-0.1c0.1,0,0.2-0.1,0.3-0.2l4.2-4.2
	C15.9,8,16,7.9,16.1,7.9c0.1,0,0.2-0.1,0.4-0.1s0.2,0,0.4,0.1c0.1,0,0.2,0.1,0.3,0.2c0.2,0.2,0.3,0.4,0.3,0.6s-0.1,0.5-0.3,0.6
	l-4.2,4.2c-0.5,0.5-1.2,0.8-1.9,0.8c-0.7,0-1.4-0.3-1.9-0.8L4.8,9.4C4.7,9.2,4.6,9,4.6,8.7c0-0.1,0-0.2,0.1-0.4
	c0-0.1,0.1-0.2,0.2-0.3C4.9,8,5,7.9,5.1,7.9c0.1,0,0.2-0.1,0.4-0.1s0.2,0,0.4,0.1C6,7.9,6.1,8,6.2,8.1L10.3,12.3z"/>
</svg>
