<svg
  xmlns="http://www.w3.org/2000/svg"
  aria-hidden="true"
  overflow="hidden"
  style="position: absolute; width: 0; height: 0"
>
  <defs>
    <symbol id="icon-user" viewBox="0 0 23 32">
      <path
        d="M.296 30.963a11.26 11.26 0 1 1 22.519 0H.297zm11.26-12.667c-4.666 0-8.444-3.779-8.444-8.444s3.779-8.444 8.444-8.444C16.222 1.408 20 5.187 20 9.852s-3.779 8.444-8.444 8.444z"
      />
    </symbol>
    <symbol id="icon-scroll-up" viewBox="0 0 55 32">
      <path
        d="M1.091 25.309 25.527.8c.291-.291.606-.496.945-.617.339-.122.703-.183 1.091-.183s.752.061 1.091.183c.339.12.655.326.946.617l24.509 24.509c.679.679 1.018 1.527 1.018 2.545s-.364 1.891-1.091 2.618c-.727.727-1.576 1.091-2.545 1.091s-1.818-.364-2.545-1.091L27.564 9.09 6.182 30.472c-.679.679-1.515 1.018-2.508 1.018-.995 0-1.856-.364-2.583-1.091S0 28.823 0 27.854c0-.97.364-1.818 1.091-2.545z"
      />
    </symbol>
    <symbol id="icon-trash" viewBox="0 0 32 32">
      <path
        stroke-linecap="round"
        stroke-linejoin="round"
        stroke-width="3.2"
        d="M11.6 2.8h8.8M2.8 7.2h26.4m-2.933 0-1.029 15.428c-.154 2.315-.232 3.472-.731 4.35a4.397 4.397 0 0 1-1.904 1.781c-.909.44-2.069.44-4.389.44h-4.427c-2.32 0-3.48 0-4.389-.44a4.403 4.403 0 0 1-1.904-1.781c-.5-.878-.577-2.035-.731-4.35L5.734 7.2m7.333 6.6v7.333m5.866-7.333v7.333"
      />
    </symbol>
    <symbol id="icon-shop" viewBox="0 0 32 32">
      <path
        d="M25.333 9.333h-4V8a5.332 5.332 0 1 0-10.666 0v1.333h-4a1.335 1.335 0 0 0-1.334 1.334v14.667a4.003 4.003 0 0 0 4 4h13.333a4.003 4.003 0 0 0 4-4V10.667a1.335 1.335 0 0 0-1.334-1.334zM13.333 8a2.668 2.668 0 0 1 5.334 0v1.333h-5.333V8zM24 25.333a1.335 1.335 0 0 1-1.334 1.334H9.333a1.335 1.335 0 0 1-1.334-1.334V12h2.667v1.333a1.335 1.335 0 0 0 2.277.943c.25-.251.391-.589.391-.943V12h5.333v1.333a1.333 1.333 0 1 0 2.667 0V12h2.667v13.333z"
      />
    </symbol>
    <symbol id="icon-arrow-user" viewBox="0 0 60 32">
      <path
        d="M3.168 3h53.667L32.712 30.27c-.719.812-1.694 1.269-2.71 1.269s-1.991-.456-2.71-1.269L3.169 3z"
      />
    </symbol>
    <symbol id="icon-menu-hamburger" viewBox="0 0 32 32">
      <path
        stroke-linecap="round"
        stroke-linejoin="round"
        stroke-width="2.286"
        d="M22.667 13.333H4M28 8H4m24 10.667H4M22.667 24H4"
      />
    </symbol>
    <symbol id="icon-arrow-down" viewBox="0 0 32 32">
      <path
        d="M15.053 17.867a1.334 1.334 0 0 0 1.894 0l6.107-6.12a1.334 1.334 0 1 1 1.894 1.88l-6.12 6.12a4.001 4.001 0 0 1-5.654 0l-6.12-6.12a1.337 1.337 0 0 1 .434-2.172 1.331 1.331 0 0 1 1.46.292l6.107 6.12z"
      />
    </symbol>
    <symbol id="icon-support" viewBox="0 0 20 32">
      <path
        d="M9.005 30.888a8.64 8.64 0 0 1-3.414-5.351H0V2.42c2.991 1.443 5.153 4.599 5.388 7.876l.846 6.493-.407-.045c-.893 0-1.676.812-1.676 1.608 0 .752.595 1.383 1.378 1.548l1.018.226c1.676-3.051 2.631-6.042 2.631-8.973 0-2.645-.36-5.291-.423-7.996 0-1.202.486-2.3 1.253-3.156.783.857 1.253 1.954 1.253 3.156 0 2.705-.423 5.351-.423 7.996 0 2.931.955 5.922 2.631 8.973l1.018-.226c.783-.165 1.378-.812 1.378-1.548 0-.812-.783-1.608-1.676-1.608l-.423.06.846-6.493c.423-3.277 2.396-6.448 5.388-7.876v23.117h-5.576c-.423 2.179-1.613 4.148-3.414 5.351-.423.286-.783.631-1.018 1.097-.219-.466-.579-.812-.987-1.112zM2.647 17.556c.235-.857.893-1.608 1.738-2.074l-.658-5.351a8.288 8.288 0 0 0-2.036-4.374v11.784h.955v.015zm2.819 6.373c0-.812.125-1.548.298-2.3l-.783-.18c-1.143-.346-2.036-1.203-2.334-2.3h-.955v4.78h3.774zm3.712 0c0-.977-.783-1.834-1.801-1.954-.172.631-.298 1.263-.298 1.954h2.099zm0 1.623H7.314c.298 1.263.955 2.42 1.864 3.397v-3.397zm2.631-5.005c-.72-1.262-1.378-2.585-1.801-3.968-.423 1.383-1.081 2.706-1.801 3.968.72.165 1.316.631 1.801 1.157.486-.526 1.081-.992 1.801-1.157zm1.143 3.382c0-.691-.125-1.323-.297-1.954-1.018.12-1.801.977-1.801 1.954h2.099zm-.235 1.623h-1.864v3.397c.908-.992 1.566-2.134 1.864-3.397zm5.623-1.623v-4.78h-.955c-.298 1.097-1.206 1.954-2.334 2.3l-.783.18c.172.752.298 1.488.298 2.3h3.774zm0-6.373V5.757c-1.081 1.202-1.864 2.706-2.036 4.374l-.658 5.351c.846.466 1.504 1.203 1.739 2.074h.955z"
      />
    </symbol>
    <symbol id="icon-arrow-right" viewBox="0 0 43 32">
      <path
        stroke-linecap="round"
        stroke-linejoin="round"
        stroke-width="5.333"
        d="M3.555 16h35.556m0 0L25.778 2.667M39.111 16 25.778 29.333"
      />
    </symbol>
    <symbol id="icon-logo" viewBox="0 0 32 32">
      <path fill="var(--color5, #f6f6f6)" d="m0 0 16.343 16.171L32 32V0H0z" />
      <path fill="var(--color5, #f6f6f6)" d="M4.457 4.229 16.4 16.058l11.257 11.486h-23.2V4.23z" />
      <path
        fill="var(--color1, #4f2ee8)"
        d="M27.733 27.618 15.79 15.789 4.533 4.303h23.2v23.314z"
      />
      <path fill="var(--color1, #4f2ee8)" d="m9.257 9.029 13.6 13.6h-13.6v-13.6z" />
      <path fill="var(--color5, #f6f6f6)" d="m9.257 9.029 13.6 13.6v-13.6h-13.6z" />
    </symbol>
    <symbol id="icon-close" viewBox="0 0 32 32">
      <path
        stroke-linecap="round"
        stroke-linejoin="round"
        stroke-width="5.333"
        d="M28.444 3.556 3.555 28.445m.001-24.889 24.889 24.889"
      />
    </symbol>
    <symbol id="icon-lock" viewBox="0 0 32 32">
      <path
        stroke-linecap="round"
        stroke-linejoin="round"
        stroke-width="2.667"
        d="M23.778 14.444V9.777c0-4.296-3.482-7.778-7.778-7.778S8.222 5.481 8.222 9.777v4.667M9.467 30h13.067c2.614 0 3.92 0 4.919-.509a4.662 4.662 0 0 0 2.039-2.039c.509-.998.509-2.305.509-4.919v-.622c0-2.614 0-3.92-.509-4.919a4.662 4.662 0 0 0-2.039-2.039c-.998-.509-2.305-.509-4.919-.509H9.467c-2.614 0-3.92 0-4.919.509a4.662 4.662 0 0 0-2.039 2.039C2 17.99 2 19.297 2 21.911v.622c0 2.614 0 3.92.509 4.919a4.662 4.662 0 0 0 2.039 2.039C5.546 30 6.853 30 9.467 30z"
      />
    </symbol>
    <symbol id="icon-email" viewBox="0 0 38 32">
      <path
        stroke-linecap="round"
        stroke-linejoin="round"
        stroke-width="2.909"
        d="M35.031 26.182 23.758 16m-9.697 0L2.788 26.182M1.94 7.515l13.856 9.699c1.122.785 1.683 1.178 2.293 1.33a3.404 3.404 0 0 0 1.642 0c.61-.152 1.171-.545 2.293-1.33L35.88 7.515M10.085 29.576h17.648c2.851 0 4.277 0 5.366-.555a5.09 5.09 0 0 0 2.225-2.225c.555-1.089.555-2.515.555-5.366V10.569c0-2.851 0-4.277-.555-5.366a5.09 5.09 0 0 0-2.225-2.225c-1.089-.555-2.515-.555-5.366-.555H10.085c-2.851 0-4.277 0-5.366.555a5.09 5.09 0 0 0-2.225 2.225c-.555 1.089-.555 2.515-.555 5.366V21.43c0 2.851 0 4.277.555 5.366a5.09 5.09 0 0 0 2.225 2.225c1.089.555 2.515.555 5.366.555z"
      />
    </symbol>
    <symbol id="icon-slider-double-left" viewBox="0 0 32 32">
      <path
        fill="#FFFFFF"
        style="fill: var(--color1, #ffffff)"
        d="M13.973 25.333c-0.364-0.002-0.694-0.149-0.933-0.387l-6.12-6.12c-0.723-0.724-1.17-1.723-1.17-2.827s0.447-2.103 1.17-2.827l6.12-6.12c0.241-0.239 0.573-0.387 0.94-0.387 0.737 0 1.334 0.597 1.334 1.334 0 0.37-0.151 0.705-0.394 0.947l-0 0-6.12 6.107c-0.244 0.242-0.395 0.576-0.395 0.947s0.151 0.705 0.395 0.947l0 0 6.12 6.107c0.244 0.241 0.395 0.576 0.395 0.946 0 0.186-0.038 0.362-0.107 0.523l0.003-0.009c-0.206 0.486-0.678 0.82-1.229 0.82-0.003 0-0.007 0-0.010-0h0.001z"
      ></path>
      <path
        fill="#FFFFFF"
        style="fill: var(--color1, #ffffff)"
        d="M23.307 25.333c-0.364-0.002-0.694-0.149-0.933-0.387l-8-8c-0.244-0.241-0.396-0.576-0.396-0.947s0.151-0.705 0.395-0.947l8-8c0.241-0.239 0.573-0.387 0.94-0.387 0.737 0 1.334 0.597 1.334 1.334 0 0.37-0.151 0.705-0.394 0.947l-7.053 7.053 7.053 7.053c0.244 0.241 0.396 0.576 0.396 0.947s-0.151 0.705-0.395 0.947l-0 0c-0.241 0.239-0.573 0.387-0.939 0.387-0.003 0-0.005 0-0.008-0h0z"
      ></path>
    </symbol>

    <symbol id="icon-slider-double-right" viewBox="0 0 32 32">
      <path
        fill="#000000"
        style="fill: var(--color1, #000000)"
        d="M17.467 25.333c-0.734-0.003-1.328-0.599-1.328-1.333 0-0.37 0.151-0.705 0.394-0.947l0-0 6.133-6.107c0.243-0.242 0.394-0.577 0.394-0.947s-0.151-0.705-0.394-0.947l-0-0-6.133-6.107c-0.244-0.241-0.396-0.576-0.396-0.947s0.151-0.705 0.395-0.947l0-0c0.241-0.24 0.573-0.388 0.94-0.388s0.699 0.148 0.94 0.388l6.12 6.12c0.723 0.724 1.17 1.723 1.17 2.827s-0.447 2.103-1.17 2.827l-6.12 6.12c-0.241 0.239-0.573 0.387-0.939 0.387-0.003 0-0.005 0-0.008-0h0z"
      ></path>
      <path
        fill="#000000"
        style="fill: var(--color1, #000000)"
        d="M8.133 25.333c-0.734-0.003-1.328-0.599-1.328-1.333 0-0.37 0.151-0.705 0.394-0.947l7.053-7.053-7.053-7.053c-0.243-0.242-0.394-0.577-0.394-0.947 0-0.737 0.597-1.334 1.334-1.334 0.367 0 0.699 0.148 0.94 0.388l8 8c0.244 0.242 0.394 0.577 0.394 0.947s-0.151 0.705-0.394 0.947l-8 8c-0.241 0.239-0.573 0.387-0.939 0.387-0.003 0-0.005 0-0.008-0h0z"
      ></path>
    </symbol>

    <symbol id="icon-slider-left" viewBox="0 0 32 32">
      <path
        fill="#FFFFFF"
        style="fill: var(--color1, #ffffff)"
        d="M14.133 16.947c-0.243-0.242-0.394-0.577-0.394-0.947s0.151-0.705 0.394-0.947l0-0 6.12-6.107c0.243-0.242 0.394-0.577 0.394-0.947 0-0.737-0.597-1.334-1.334-1.334-0.367 0-0.699 0.148-0.94 0.388l-6.12 6.12c-0.723 0.724-1.17 1.723-1.17 2.827s0.447 2.103 1.17 2.827l6.12 6.12c0.241 0.239 0.573 0.387 0.94 0.387 0.737 0 1.334-0.597 1.334-1.334 0-0.37-0.151-0.705-0.394-0.947l-0-0-6.12-6.107z"
      ></path>
    </symbol>

    <symbol id="icon-slider-right" viewBox="0 0 32 32">
      <path
        fill="#000000"
        style="fill: var(--color1, #000000)"
        d="M20.533 13.173l-6.12-6.12c-0.241-0.239-0.573-0.387-0.94-0.387-0.737 0-1.334 0.597-1.334 1.334 0 0.37 0.151 0.705 0.394 0.947l0 0 6.133 6.107c0.244 0.241 0.395 0.576 0.395 0.946 0 0.186-0.038 0.362-0.107 0.523l0.003-0.009c-0.072 0.169-0.171 0.313-0.293 0.433l-0 0-6.133 6.107c-0.243 0.242-0.394 0.577-0.394 0.947 0 0.737 0.597 1.334 1.334 1.334 0.367 0 0.699-0.148 0.94-0.387l6.12-6.12c0.723-0.724 1.17-1.723 1.17-2.827s-0.447-2.103-1.17-2.827l0 0z"
      ></path>
    </symbol>
  </defs>
</svg>
